<svg width="98" height="63" viewBox="0 0 98 63" fill="none" xmlns="http://www.w3.org/2000/svg">
<path d="M97.5365 0.0502014V62.1498H47.4779V60.5961H96.0502V1.69571H24.5209L47.101 43.9232V24.9125L47.1752 24.9535L59.5717 31.8139L71.4261 8.79727L71.5199 8.61368V42.2602H68.0267V23.1098L61.1469 37.2592L61.1224 37.309L61.0756 37.2797L50.4056 30.6332V53.7348H48.0648L48.0502 53.7104L29.8568 22.6938V33.5541H31.1273L31.142 33.5775L33.4047 37.2113L33.4525 37.2875H29.8568V42.2602H26.4408V20.2133C25.5203 22.0213 24.1595 23.494 22.3558 24.6283L21.976 24.8578C19.9176 26.0451 17.2841 26.6371 14.0785 26.6371H5.13025V41.8773H0.0501709V0.0502014H97.5365ZM5.62341 21.8871H14.4603C16.6769 21.8871 18.4521 21.4995 19.7885 20.7279C21.1265 19.9553 22.0954 18.9127 22.6967 17.6L22.809 17.3481C23.3503 16.082 23.6215 14.6658 23.6215 13.099C23.6214 11.4278 23.3125 9.93493 22.6967 8.61954C22.0955 7.30694 21.1202 6.27702 19.7689 5.53165H19.7679C18.4181 4.77374 16.6235 4.39304 14.3802 4.39297H5.62341V21.8871Z" fill="white" stroke="black" stroke-width="0.1" stroke-miterlimit="7.68167"/>
</svg>
