<svg width="100" height="64" viewBox="0 0 100 64" fill="none" xmlns="http://www.w3.org/2000/svg">
<path d="M98.8867 0.5V63.5H47.9277V61.0459H96.5V3.0459H26.1729L47.5508 43.0264V25.0498L48.293 25.46L60.2842 32.0947L71.9258 9.49121L72.8701 9.71973V43.6104H68.4766V25.9658L62.4512 38.3564L62.208 38.8555L61.7373 38.5615L51.7559 32.3438V55.085H48.707L48.5625 54.8379L31.207 25.252V34.0039H32.2773L32.4248 34.2393L34.6865 37.873L35.1621 38.6377H31.207V43.6104H26.8906V22.7295C25.9227 24.0985 24.6592 25.2387 23.1035 26.1465L23.1016 26.1475C20.9549 27.3857 18.2363 27.9873 14.9785 27.9873H6.48047V43.2275H0.5V0.5H98.8867ZM6.97266 22.3379H15.3604C17.5298 22.3379 19.2181 21.9569 20.4629 21.2383C21.7261 20.509 22.6278 19.5345 23.1875 18.3125L23.1885 18.3105C23.7734 17.0484 24.0713 15.6141 24.0713 13.999C24.0713 12.3839 23.7734 10.9574 23.1895 9.70996L23.1875 9.70605C22.6292 8.48736 21.724 7.52825 20.4512 6.82617L20.4482 6.82422C19.1889 6.11702 17.4785 5.74225 15.2803 5.74219H6.97266V22.3379Z" fill="white" stroke="black"/>
</svg>
