<svg width="46" height="45" viewBox="0 0 46 45" fill="none" xmlns="http://www.w3.org/2000/svg">
<ellipse cx="23" cy="22.5" rx="23" ry="22.5" fill="white"/>
<path d="M22.8014 7H22.7308C14.1924 7 7.27063 13.9238 7.27063 22.4647V22.5353C7.27063 31.0762 14.1924 38 22.7308 38H22.8014C31.3398 38 38.2615 31.0762 38.2615 22.5353V22.4647C38.2615 13.9238 31.3398 7 22.8014 7Z" fill="black"/>
<path d="M13.1402 21.9713C13.1836 21.9496 13.227 21.929 13.2694 21.9094C14.0055 21.5684 14.7515 21.2491 15.4963 20.9298C15.5365 20.9298 15.6038 20.8831 15.6418 20.8679C15.6993 20.8429 15.7569 20.819 15.8144 20.794C15.9252 20.7462 16.0359 20.6995 16.1456 20.6517C16.3671 20.5572 16.5875 20.4627 16.809 20.3683L18.1347 19.8002C19.0185 19.4223 19.9034 19.0432 20.7872 18.6653C21.671 18.2873 22.5559 17.9083 23.4397 17.5303C24.3235 17.1524 25.2084 16.7733 26.0922 16.3954C26.976 16.0174 27.8609 15.6384 28.7447 15.2604C28.9413 15.1757 29.1541 15.0497 29.3647 15.0128C29.5417 14.9813 29.7143 14.9205 29.8924 14.8868C30.23 14.8227 30.6025 14.7967 30.926 14.9368C31.0379 14.9856 31.141 15.0541 31.2268 15.1399C31.6372 15.5461 31.5796 16.2129 31.4928 16.7842C30.888 20.7658 30.2832 24.7484 29.6774 28.73C29.5949 29.2763 29.482 29.8758 29.0509 30.2212C28.6861 30.5133 28.1671 30.5459 27.7165 30.4221C27.2659 30.2972 26.8685 30.0355 26.4787 29.7781C24.8621 28.7072 23.2443 27.6363 21.6276 26.5654C21.2432 26.3113 20.8154 25.979 20.8198 25.5174C20.8219 25.2393 20.9881 24.9917 21.1574 24.7712C22.5624 22.9379 24.5895 21.6781 26.0976 19.9295C26.3105 19.6829 26.4777 19.2377 26.1856 19.0954C26.0119 19.0107 25.8121 19.1258 25.6536 19.2355C23.6601 20.6202 21.6678 22.0061 19.6743 23.3908C19.0239 23.8426 18.3421 24.3075 17.5581 24.4183C16.8567 24.5182 16.151 24.3227 15.4724 24.1228C14.9035 23.9556 14.3356 23.784 13.7699 23.607C13.4692 23.5136 13.1586 23.4125 12.9263 23.2008C12.6939 22.989 12.5604 22.6327 12.7005 22.3504C12.7884 22.1733 12.9589 22.0615 13.138 21.9702L13.1402 21.9713Z" fill="#FEFFFC"/>
</svg>
